<?xml version="1.0" standalone="no"?>
<!DOCTYPE svg PUBLIC "-//W3C//DTD SVG 20010904//EN"
 "http://www.w3.org/TR/2001/REC-SVG-20010904/DTD/svg10.dtd">
<svg version="1.0" xmlns="http://www.w3.org/2000/svg"
 width="1280.000000pt" height="640.000000pt" viewBox="0 0 1280.000000 640.000000"
 preserveAspectRatio="xMidYMid meet">
<g transform="translate(0.000000,640.000000) scale(0.100000,-0.100000)"
fill="#0b0b0b" stroke="none">
<path d="M3080 4500 c-58 -3 -111 -9 -117 -13 -7 -5 -13 -21 -13 -37 0 -19 -6
-30 -17 -32 -16 -3 -19 -27 -28 -238 -10 -233 -10 -235 -32 -238 -20 -3 -23
-10 -24 -55 -1 -29 -4 -115 -8 -192 -6 -137 -6 -140 -30 -143 -23 -4 -23 -2
-17 55 3 32 8 104 12 161 6 99 5 103 -15 109 -11 3 -21 10 -21 15 0 5 5 6 11
2 7 -4 7 2 -1 17 -10 17 -11 72 -6 227 7 184 6 204 -8 199 -13 -5 -16 1 -16
32 l0 39 -72 13 c-40 7 -86 12 -103 11 -16 -1 -32 4 -36 10 -5 8 -12 9 -21 2
-21 -16 -126 -5 -130 13 -2 12 -7 11 -27 -6 -13 -12 -32 -21 -41 -21 -12 0
-20 -11 -24 -35 -4 -21 -13 -35 -21 -35 -8 0 -15 -8 -15 -17 0 -10 -5 -108
-10 -217 -10 -195 -12 -208 -44 -219 -5 -2 -13 -84 -17 -183 -4 -98 -8 -182
-8 -186 -1 -5 -9 -8 -20 -8 -20 0 -23 -23 -37 -292 -6 -116 -8 -128 -25 -128
-14 0 -19 7 -19 29 0 37 -12 41 -115 41 -64 0 -84 -3 -89 -15 -3 -8 -14 -15
-25 -15 -15 0 -21 8 -23 32 -3 29 -7 33 -43 41 -49 10 -83 14 -157 16 -39 1
-58 5 -58 14 0 9 -31 10 -142 5 -79 -4 -163 -11 -188 -15 -39 -7 -45 -12 -48
-36 -3 -24 -7 -27 -43 -27 -37 0 -39 -2 -39 -30 l0 -30 -137 -2 c-76 -1 -163
0 -195 1 -66 3 -66 3 -70 -106 -1 -40 -6 -73 -10 -73 -12 0 -9 179 3 202 7 14
8 23 1 27 -10 6 -2 101 13 147 6 19 2 22 -41 28 -26 3 -71 6 -100 6 -50 0 -53
1 -56 28 l-3 27 -174 3 c-146 2 -172 0 -163 -11 15 -18 5 -27 -29 -27 -40 0
-56 -32 -58 -110 -1 -36 -6 -66 -11 -68 -5 -2 -5 -13 0 -28 6 -15 6 -43 0 -75
-6 -29 -10 -69 -10 -90 0 -38 -1 -39 -35 -39 l-35 0 0 -535 0 -535 6400 0
6400 0 0 230 0 230 -55 0 -55 0 0 50 0 50 -160 0 -160 0 0 -125 0 -124 -34
-16 c-19 -9 -49 -15 -68 -13 l-33 3 3 183 c2 177 2 184 -18 189 -11 3 -20 14
-20 25 0 11 -8 22 -17 24 -17 5 -18 39 -15 560 l2 554 -98 0 c-92 0 -100 -2
-122 -25 l-23 -25 -287 0 c-158 0 -328 -3 -378 -6 l-90 -7 -7 -88 -7 -89 -62
0 c-33 -1 -131 -11 -216 -24 l-155 -22 -5 -60 c-5 -54 -7 -59 -30 -62 -14 -2
-34 -7 -45 -12 -11 -4 -27 -10 -36 -13 -13 -4 -17 -59 -28 -408 -7 -222 -16
-407 -19 -411 -4 -4 -23 -8 -42 -10 -35 -3 -35 -3 -41 -63 -4 -32 -12 -61 -18
-63 -6 -2 -11 -12 -11 -23 0 -17 -8 -19 -63 -19 -51 0 -68 4 -82 20 -10 11
-29 20 -43 20 l-25 0 7 342 c5 217 11 347 18 355 8 10 4 13 -16 13 -21 0 -26
5 -26 26 0 24 -3 26 -32 20 -18 -3 -28 -2 -21 2 8 5 10 21 7 43 l-6 35 -112
13 c-61 7 -128 15 -149 18 -47 6 -65 -8 -73 -58 -6 -34 -10 -38 -38 -41 -28
-3 -32 -7 -38 -43 -20 -111 -12 -102 -89 -109 -76 -8 -105 2 -112 36 -4 23 -4
23 -6 1 -1 -26 -24 -31 -130 -32 -41 0 -78 -4 -83 -9 -5 -5 -9 -40 -9 -78 1
-38 -2 -102 -5 -141 l-6 -73 -39 0 c-32 0 -39 -3 -39 -20 0 -19 -19 -26 -57
-21 -10 1 -13 -27 -14 -109 -1 -60 -2 -113 -4 -117 -9 -34 -20 -43 -51 -43
-24 0 -34 -5 -34 -15 0 -8 -4 -15 -10 -15 -5 0 -11 57 -12 137 -3 130 -4 138
-23 141 -23 3 -65 74 -66 112 0 18 -20 43 -65 84 l-65 59 -42 -40 c-51 -50
-104 -78 -110 -60 -2 8 -43 13 -140 15 -120 4 -137 2 -137 -12 0 -12 -10 -16
-45 -16 l-45 0 0 -85 c0 -78 -2 -85 -20 -85 -16 0 -20 7 -20 30 l0 30 -84 0
c-61 0 -87 4 -96 15 -9 11 -40 15 -118 17 -104 3 -106 4 -112 28 -5 20 -13 26
-40 28 -23 3 -38 -2 -47 -13 -16 -24 -132 -17 -157 8 -19 19 -126 25 -126 7 0
-5 -17 -10 -39 -10 l-38 0 -7 -52 c-3 -29 -6 -86 -6 -127 l0 -73 -72 7 c-40 4
-74 8 -76 10 -2 1 -5 67 -8 146 -3 79 -7 149 -9 156 -3 8 -13 9 -34 3 -25 -7
-31 -6 -31 6 0 8 -10 19 -22 24 -23 10 -171 36 -260 47 -46 5 -48 7 -45 37 2
30 0 31 -43 38 -25 4 -107 11 -182 14 -109 5 -138 9 -138 20 0 10 -13 14 -45
14 l-45 0 0 -65 0 -65 -72 -1 c-108 -1 -121 -7 -132 -57 -7 -31 -14 -42 -27
-42 -13 0 -19 7 -19 24 0 13 -6 26 -14 29 -18 7 -95 -4 -102 -14 -3 -5 -14 -9
-24 -9 -19 0 -54 55 -45 71 9 13 -31 29 -74 29 -30 0 -43 5 -51 20 -6 11 -18
20 -28 20 -9 0 -26 7 -36 15 -11 8 -34 15 -52 15 -28 0 -33 -4 -36 -27 -2 -23
-7 -27 -28 -25 -69 8 -65 11 -70 -51 -6 -66 -16 -77 -76 -77 -31 0 -46 6 -68
29 -28 29 -62 36 -224 45 -13 1 -28 9 -33 18 -6 11 -30 18 -79 23 -39 4 -73
11 -76 16 -7 12 -84 11 -84 -1 0 -5 -16 -10 -35 -10 -30 0 -37 5 -52 38 -14
27 -25 38 -45 40 -20 2 -30 10 -34 28 -3 13 -13 28 -21 32 -13 8 -13 47 -4
305 6 162 11 316 11 341 l0 46 -55 0 c-35 0 -57 5 -62 14 -10 16 -163 29 -163
13 0 -6 -16 -7 -39 -3 -22 3 -62 1 -90 -5 l-49 -10 -6 -92 c-3 -51 -8 -175
-11 -277 -6 -219 -14 -310 -26 -310 -5 0 -9 9 -9 20 0 18 -7 20 -60 20 l-60 0
0 55 c0 48 -3 55 -22 60 -13 2 -30 4 -38 3 -46 -4 -60 2 -60 27 0 24 -3 25
-54 25 -30 0 -58 -5 -61 -10 -3 -6 -9 -38 -13 -73 l-7 -62 -37 -3 c-25 -2 -38
-8 -38 -18 0 -8 -9 -14 -20 -14 -19 0 -20 -7 -20 -179 0 -161 -7 -211 -24
-182 -12 18 -89 52 -105 45 -9 -3 -45 -7 -81 -7 l-65 0 0 104 c0 57 4 233 9
392 l8 287 -21 0 c-21 0 -21 2 -19 198 3 186 2 197 -15 194 -20 -3 -20 28 -1
376 5 96 4 103 -13 100 -15 -2 -18 4 -18 35 0 26 -6 41 -18 48 -31 18 -218 34
-327 29z m6965 -1420 c-3 -5 -12 -7 -20 -3 -21 7 -19 13 6 13 11 0 18 -4 14
-10z m58 -7 c-7 -2 -19 -2 -25 0 -7 3 -2 5 12 5 14 0 19 -2 13 -5z"/>
</g>
</svg>
